<svg width="60" height="60" viewBox="0 0 60 60" fill="none" xmlns="http://www.w3.org/2000/svg">
<g opacity="0.7">
<path fill-rule="evenodd" clip-rule="evenodd" d="M1.83972 1.90452H58.696V59.0474H1.83972V1.90452Z" fill="#0B0C23"/>
<path d="M2.33972 2.40452H58.196V58.5474H2.33972V2.40452Z" stroke="white" stroke-opacity="0.1"/>
</g>
<mask id="mask0" mask-type="alpha" maskUnits="userSpaceOnUse" x="1" y="1" width="58" height="59">
<path fill-rule="evenodd" clip-rule="evenodd" d="M1.83972 1.90452H58.696V59.0474H1.83972V1.90452Z" fill="white"/>
</mask>
<g mask="url(#mask0)">
<rect x="-57.1431" y="-58.0952" width="179.048" height="175.238" fill="black" fill-opacity="0.01"/>
</g>
<path fill-rule="evenodd" clip-rule="evenodd" d="M1.83936 1.27954H3.7395V3.2737H1.83936V1.27954ZM58.6957 1.27954H56.7955V3.2737H58.6957V1.27954ZM58.6957 56.4881H56.7955V58.482H58.6957V56.4881ZM3.7395 56.4881H1.83936V58.482H3.7395V56.4881Z" fill="white"/>
<path d="M36.1186 24.7988H35.8866V24.3257C35.8866 23.9217 35.5579 23.593 35.1539 23.593H32.4486L32.1181 22.4361C32.0287 22.1233 31.739 21.9048 31.4136 21.9048H28.7648C28.4395 21.9048 28.1498 22.1233 28.0604 22.4362L27.7299 23.593H25.0246C24.6206 23.593 24.2919 23.9217 24.2919 24.3257V24.7989H24.0599C23.9216 24.7989 23.8096 24.911 23.8096 25.0492C23.8096 25.1875 23.9216 25.2995 24.0599 25.2995H24.5523L25.4276 36.2401C25.4777 36.8671 26.0097 37.3582 26.6387 37.3582H33.5398C34.1687 37.3582 34.7007 36.8671 34.7509 36.2401L35.6261 25.2995H36.1185C36.2568 25.2995 36.3689 25.1875 36.3689 25.0492C36.3689 24.911 36.2568 24.7988 36.1186 24.7988ZM28.5418 22.5737C28.5701 22.4746 28.6618 22.4054 28.7648 22.4054H31.4136C31.5167 22.4054 31.6084 22.4746 31.6367 22.5737L31.9279 23.593H28.2505L28.5418 22.5737ZM25.0246 24.0937H27.9238C27.9242 24.0937 27.9245 24.0937 27.9249 24.0937H32.2589C32.2591 24.0937 32.2594 24.0937 32.2597 24.0937C32.26 24.0937 32.2603 24.0937 32.2606 24.0937H35.1539C35.2818 24.0937 35.3859 24.1978 35.3859 24.3257V24.7989H24.7925V24.3257C24.7925 24.1977 24.8967 24.0937 25.0246 24.0937ZM34.2518 36.2001C34.2223 36.5688 33.9096 36.8576 33.5398 36.8576H26.6387C26.2689 36.8576 25.9561 36.5688 25.9266 36.2002L25.0546 25.2995H35.1239L34.2518 36.2001Z" fill="white"/>
<path d="M30.0892 36.1523C30.2274 36.1523 30.3395 36.0402 30.3395 35.902V26.4962C30.3395 26.3579 30.2274 26.2458 30.0892 26.2458C29.9509 26.2458 29.8389 26.3579 29.8389 26.4962V35.9019C29.8389 36.0402 29.9509 36.1523 30.0892 36.1523Z" fill="white"/>
<path d="M27.6688 35.9148C27.6756 36.0485 27.7862 36.1523 27.9186 36.1523C27.9229 36.1523 27.9272 36.1522 27.9316 36.152C28.0697 36.1449 28.1759 36.0272 28.1688 35.8891L27.6864 26.4834C27.6793 26.3453 27.562 26.2391 27.4235 26.2462C27.2855 26.2533 27.1793 26.3709 27.1864 26.509L27.6688 35.9148Z" fill="white"/>
<path d="M32.2468 36.152C32.2512 36.1522 32.2555 36.1523 32.2598 36.1523C32.3922 36.1523 32.5027 36.0485 32.5096 35.9148L32.992 26.509C32.9991 26.3709 32.8929 26.2533 32.7548 26.2462C32.6164 26.2391 32.4991 26.3453 32.492 26.4834L32.0096 35.8891C32.0026 36.0272 32.1087 36.1448 32.2468 36.152Z" fill="white"/>
</svg>
